<?xml version="1.0" encoding="UTF-8"?>
<svg width="16px" height="16px" viewBox="0 0 16 16" version="1.1" xmlns="http://www.w3.org/2000/svg" xmlns:xlink="http://www.w3.org/1999/xlink">
    <title>arrow_right</title>
    <g id="页面-2" stroke="none" stroke-width="1" fill="none" fill-rule="evenodd">
        <g id="创建钱包_类型" transform="translate(-343.000000, -112.000000)">
            <g id="编组" transform="translate(0.000000, 88.000000)">
                <g id="arrow_right" transform="translate(343.000000, 24.000000)">
                    <rect id="矩形" x="0" y="0" width="16" height="16"></rect>
                    <path d="M7.29289322,1.29289322 C7.65337718,0.932409257 8.22060824,0.904679722 8.61289944,1.20970461 L8.70710678,1.29289322 L14.7071068,7.29289322 C15.0675907,7.65337718 15.0953203,8.22060824 14.7902954,8.61289944 L14.7071068,8.70710678 L8.70710678,14.7071068 C8.31658249,15.0976311 7.68341751,15.0976311 7.29289322,14.7071068 C6.93240926,14.3466228 6.90467972,13.7793918 7.20970461,13.3871006 L7.29289322,13.2928932 L12.585,8 L7.29289322,2.70710678 C6.93240926,2.34662282 6.90467972,1.77939176 7.20970461,1.38710056 L7.29289322,1.29289322 Z" id="路径-3" fill="#909195" fill-rule="nonzero"></path>
                </g>
            </g>
        </g>
    </g>
</svg>