<?xml version="1.0" encoding="UTF-8"?>
<svg width="375px" height="812px" viewBox="0 0 375 812" version="1.1" xmlns="http://www.w3.org/2000/svg" xmlns:xlink="http://www.w3.org/1999/xlink">
    <title>bg_taichi</title>
    <defs>
        <rect id="path-1" x="0" y="0" width="375" height="812"></rect>
    </defs>
    <g id="页面-2" stroke="none" stroke-width="1" fill="none" fill-rule="evenodd">
        <g id="bg_taichi">
            <mask id="mask-2" fill="white">
                <use xlink:href="#path-1"></use>
            </mask>
            <g id="蒙版"></g>
            <g id="阴阳-太极02" mask="url(#mask-2)" fill-rule="nonzero">
                <g transform="translate(-413.000000, -69.000000)" id="路径">
                    <path d="M600,1200 C765.686719,1200 900,1065.68672 900,900 C900,734.313281 765.686719,600 600,600 C434.313281,600 300,465.686719 300,300 C300,134.313281 434.313281,0 600,0 C931.371094,0 1200,268.628906 1200,600 C1200,931.371094 931.371094,1200 600,1200 Z" fill="#FFFFFF"></path>
                    <path d="M600,0 C434.313281,0 300,134.313281 300,300 C300,465.686719 434.313281,600 600,600 C765.686719,600 900,734.313281 900,900 C900,1065.68672 765.686719,1200 600,1200 C268.628906,1200 0,931.371094 0,600 C0,268.628906 268.628906,0 600,0 Z" fill="#1F1F1F"></path>
                    <path d="M492.857813,900 C492.857813,959.172996 540.827004,1007.14219 600,1007.14219 C659.172996,1007.14219 707.142188,959.172996 707.142188,900 C707.142188,840.827004 659.172996,792.857812 600,792.857812 C540.827004,792.857812 492.857813,840.827004 492.857813,900 L492.857813,900 Z" fill="#EDEDEE"></path>
                    <path d="M492.857813,300 C492.857813,359.172996 540.827004,407.142187 600,407.142187 C659.172996,407.142187 707.142188,359.172996 707.142188,300 C707.142188,240.827004 659.172996,192.857812 600,192.857812 C540.827004,192.857812 492.857813,240.827004 492.857813,300 Z" fill="#1F1F1F"></path>
                </g>
            </g>
        </g>
    </g>
</svg>