<?xml version="1.0" encoding="UTF-8"?>
<svg width="16px" height="16px" viewBox="0 0 16 16" version="1.1" xmlns="http://www.w3.org/2000/svg" xmlns:xlink="http://www.w3.org/1999/xlink">
    <title>chain_hst_small</title>
    <g id="chain_hst_small" stroke="none" stroke-width="1" fill="none" fill-rule="evenodd">
        <path d="M14.7869479,8.78224282 L15.9999202,8.78306392 C15.5961391,12.8353038 12.1685641,16 8,16 C3.83143588,16 0.403860867,12.8353038 7.97750254e-05,8.78306392 L1.2130521,8.78224282 C1.61098695,12.1691105 4.49783993,14.7970303 8,14.7970303 C11.5021601,14.7970303 14.3890131,12.1691105 14.7869479,8.78224282 Z M11.2555747,6.65245676 L11.2555747,11.2277169 L4.82382258,11.2277169 L4.82382258,9.72400573 L5.770901,9.72400573 L5.770901,10.2426432 L10.3084963,10.2426432 L10.3084963,7.63713673 L6.16767903,7.63713673 L6.16767903,6.65245676 L11.2555747,6.65245676 Z M11.255586,4.81187869 L11.255586,6.19999337 L10.3085076,6.19999337 L10.3085076,5.7966149 L5.77091228,5.7966149 L5.77091228,8.26244928 L9.98177907,8.26244928 L9.98177907,9.24397917 L4.82383386,9.24397917 L4.82383386,4.81187869 L11.255586,4.81187869 Z M8.80394704,0 C12.6022221,0.376170827 15.622847,3.38928524 16,7.17814146 L14.7870414,7.17895791 C14.4203544,4.0548711 11.9360111,1.57636021 8.80431947,1.21009259 L8.80394704,0 Z M7.19605296,0 L7.19568053,1.21009259 C4.06398889,1.57636021 1.57964563,4.0548711 1.21295858,7.17895791 L0,7.17814146 C0.369757887,3.46357654 3.28033835,0.494630424 6.97353602,0.0251551223 L7.19605296,0 Z" id="形状结合" fill="#FFFFFF" fill-rule="nonzero"></path>
    </g>
</svg>