<?xml version="1.0" encoding="UTF-8"?>
<svg width="32px" height="32px" viewBox="0 0 32 32" version="1.1" xmlns="http://www.w3.org/2000/svg" xmlns:xlink="http://www.w3.org/1999/xlink">
    <title>chain_hst</title>
    <g id="页面-2" stroke="none" stroke-width="1" fill="none" fill-rule="evenodd">
        <g id="选择钱包" transform="translate(-32.000000, -224.000000)" fill="#FEC551">
            <g id="ETH-+-0x3383c5a89...a1408e-+-编组-9-+-$-+-1.56-+-编组-8-+-编组-8备份-蒙版备份-4" transform="translate(16.000000, 200.000000)">
                <g id="chain_hst" transform="translate(16.000000, 24.000000)">
                    <circle id="椭圆形" opacity="0.200000003" cx="16" cy="16" r="16"></circle>
                    <path d="M24.3924027,16.9507035 L25.9011302,16.9517274 C25.3988965,22.0045229 21.1355867,25.9506276 15.9506147,25.9506276 C10.7656428,25.9506276 6.50233299,22.0045229 6.00009923,16.9517274 L7.50882677,16.9507035 C8.0037888,21.173837 11.594534,24.4506276 15.9506147,24.4506276 C20.3066954,24.4506276 23.8974407,21.173837 24.3924027,16.9507035 Z M19.999986,14.295043 L19.999986,20 L12,20 L12,18.1250011 L13.1780016,18.1250011 L13.1780016,18.7716976 L18.8219844,18.7716976 L18.8219844,15.5228544 L13.6715247,15.5228544 L13.6715247,14.295043 L19.999986,14.295043 Z M20,12 L20,13.7308599 L18.8219984,13.7308599 L18.8219984,13.2278816 L13.1780156,13.2278816 L13.1780156,16.3025656 L18.4156047,16.3025656 L18.4156047,17.5264491 L12.000014,17.5264491 L12.000014,12 L20,12 Z M16.9505856,6 C21.6749821,6.46905276 25.4321164,10.226148 25.9012295,14.9505267 L24.392519,14.9515448 C23.9364238,11.0560765 20.846331,7.96558597 16.9510489,7.50888167 L16.9505856,6 Z M14.9506438,6 L14.9501806,7.50888167 C11.0548985,7.96558597 7.96480563,11.0560765 7.50871044,14.9515448 L6,14.9505267 C6.45991479,10.3187829 10.0801729,6.61676171 14.6738713,6.03136628 L14.9506438,6 Z" id="形状结合" fill-rule="nonzero"></path>
                </g>
            </g>
        </g>
    </g>
</svg>