<?xml version="1.0" encoding="UTF-8"?>
<svg width="22px" height="22px" viewBox="0 0 22 22" version="1.1" xmlns="http://www.w3.org/2000/svg" xmlns:xlink="http://www.w3.org/1999/xlink">
    <title>ecology_browser</title>
    <g id="页面-2" stroke="none" stroke-width="1" fill="none" fill-rule="evenodd">
        <g id="生态" transform="translate(-16.000000, -129.000000)">
            <g id="编组备份-6" transform="translate(0.000000, 112.000000)">
                <g id="ecology_browser" transform="translate(16.000000, 17.000000)">
                    <rect id="矩形" x="0" y="0" width="22" height="22"></rect>
                    <path d="M11,1 C14.1085133,1 16.8857548,2.41834288 18.7198708,4.64317487 L18.7649064,4.62993044 C20.3872288,4.1665912 21.4877693,4.16534928 21.8253175,4.75 C22.065299,5.16566009 21.8528455,5.76981321 21.2718199,6.50779411 L21.1417035,6.66796134 L20.9002681,6.943686 L20.7682538,7.08551836 L20.7682538,7.08551836 L20.4821624,7.37677725 L20.3655959,7.48719119 C20.7757063,8.58008951 21,9.76385145 21,11 C21,16.5228475 16.5228475,21 11,21 C7.89055993,21 5.11258916,19.5808112 3.27848891,17.3548349 L3.12111585,17.4001822 L2.72583258,17.5023151 L2.72583258,17.5023151 L2.53699498,17.5457267 L2.1774927,17.6169536 C1.13600948,17.7990977 0.431805453,17.6953501 0.174682453,17.25 C-0.0652990144,16.8343399 0.147154525,16.2301868 0.728180135,15.4922059 L0.858296469,15.3320387 L1.0997319,15.056314 L1.23174625,14.9144816 L1.23174625,14.9144816 L1.51783758,14.6232227 L1.63440413,14.5128088 C1.22429372,13.4199105 1,12.2361485 1,11 C1,5.4771525 5.4771525,1 11,1 Z M19.5608854,8.21522083 L19.4550278,8.30632702 L18.8517292,8.7990502 L18.4182419,9.13661538 L17.9607145,9.48080139 L17.4799958,9.83105486 L16.9769348,10.1868224 L16.4523806,10.5475506 L15.6271063,11.0967337 L15.0525329,11.4674427 L14.4594376,11.8411754 L13.8486692,12.2173787 L13.2210767,12.595499 L12.5775092,12.974983 L11.9216309,13.3536545 L11.2712043,13.7212584 L10.6299463,14.0757092 L9.9987605,14.4165485 L9.37855076,14.7433178 L8.77022074,15.0555585 L7.88197707,15.4956754 L7.30730013,15.7695886 L6.74766593,16.0273684 L6.20397819,16.2685562 L5.54816997,16.5460101 L4.92045524,16.7959271 L4.43969688,16.9754323 L4.31028453,17.0207219 C5.95763926,18.8499378 8.34451392,20 11,20 C15.9705627,20 20,15.9705627 20,11 C20,10.028059 19.8459318,9.09210265 19.5608854,8.21522083 Z M2.03651585,15.4385025 L1.86495815,15.5983787 L1.65047456,15.8088205 L1.42440508,16.0478552 L1.38495498,16.0923035 L1.24689765,16.2583799 C1.0638216,16.4931217 0.989935977,16.6620605 1.04070786,16.75 C1.08422661,16.8253767 1.22507485,16.8511932 1.45009796,16.8310982 L1.56956319,16.8172416 L1.78242227,16.7807163 L1.90082057,16.7557214 L2.16069506,16.6925056 L2.45019389,16.6119729 L2.67502058,16.5422024 C2.43971987,16.1894594 2.22624184,15.8209163 2.03651585,15.4385025 Z M11,2 C6.02943725,2 2,6.02943725 2,11 C2,12.9401032 2.61387925,14.7368273 3.65799281,16.2065272 L4.08266169,16.0455092 L4.73227508,15.7864875 L5.19063281,15.5954188 L5.91265405,15.2821884 L6.67193065,14.9381494 L7.19652012,14.6923101 L8.00757339,14.2997848 L8.56238248,14.0228134 L9.41231795,13.5853781 L10.2793934,13.1227136 L11.1589668,12.6361074 L11.75,12.2990381 L12.3374272,11.955723 L13.1986272,11.4372932 L13.7579821,11.0908275 L14.3043263,10.7448523 L14.8366419,10.400368 L15.3539108,10.0583749 L16.0993743,9.55224486 L16.8052559,9.05734737 L17.2521569,8.73532337 L17.8844331,8.26664985 L18.2790822,7.96523474 L18.651049,7.67381387 L19.1809422,7.24348245 C17.7575356,4.14868805 14.6296943,2 11,2 Z M20.5517661,5.17090777 L20.4326044,5.1848666 L20.2202163,5.22143657 L19.976141,5.27576645 L19.7017557,5.3474863 L19.3984378,5.43622617 L19.326303,5.4597823 C19.5610808,5.81192294 19.774114,6.17980084 19.9634842,6.56149751 L20.1350142,6.40163719 L20.3495069,6.19119016 L20.5755846,5.95215068 L20.615036,5.90770167 L20.7530974,5.74162296 C20.9361784,5.5068783 21.010064,5.33793947 20.9592921,5.25 C20.9164139,5.17573272 20.776181,5.15054806 20.5517661,5.17090777 Z" id="形状" fill="#C19A5F" fill-rule="nonzero"></path>
                </g>
            </g>
        </g>
    </g>
</svg>