<?xml version="1.0" encoding="UTF-8"?>
<svg width="22px" height="22px" viewBox="0 0 22 22" version="1.1" xmlns="http://www.w3.org/2000/svg" xmlns:xlink="http://www.w3.org/1999/xlink">
    <title>ecology_game</title>
    <g id="页面-2" stroke="none" stroke-width="1" fill="none" fill-rule="evenodd">
        <g id="生态" transform="translate(-16.000000, -441.000000)">
            <g id="编组备份-5" transform="translate(0.000000, 424.000000)">
                <g id="ecology_game" transform="translate(16.000000, 17.000000)">
                    <rect id="矩形" x="0" y="0" width="22" height="22"></rect>
                    <path d="M13,1.5 C13.2761424,1.5 13.5,1.72385763 13.5,2 C13.5,3.50560857 13.0764064,4.41825708 12.1320175,4.49477168 L12,4.5 C11.7036893,4.5 11.5,4.90737865 11.5,6 L15,6 C18.8659932,6 22,9.13400675 22,13 C22,16.8659932 18.8659932,20 15,20 L7,20 C3.13400675,20 0,16.8659932 0,13 C0,9.13400675 3.13400675,6 7,6 L10.5,6 C10.5,4.42595468 10.9629773,3.5 12,3.5 C12.2963107,3.5 12.5,3.09262135 12.5,2 C12.5,1.72385763 12.7238576,1.5 13,1.5 Z M15,7 L7,7 C3.6862915,7 1,9.6862915 1,13 C1,16.2383969 3.56557489,18.8775718 6.77506174,18.9958615 L7,19 L15,19 C18.3137085,19 21,16.3137085 21,13 C21,9.76160306 18.4344251,7.12242824 15.2249383,7.00413847 L15,7 Z M6,9.5 C6.24545989,9.5 6.44960837,9.67687516 6.49194433,9.91012437 L6.5,10 L6.5,12.5 L9,12.5 C9.27614237,12.5 9.5,12.7238576 9.5,13 C9.5,13.2454599 9.32312484,13.4496084 9.08987563,13.4919443 L9,13.5 L6.5,13.5 L6.5,16 C6.5,16.2761424 6.27614237,16.5 6,16.5 C5.75454011,16.5 5.55039163,16.3231248 5.50805567,16.0898756 L5.5,16 L5.5,13.5 L3,13.5 C2.72385763,13.5 2.5,13.2761424 2.5,13 C2.5,12.7545401 2.67687516,12.5503916 2.91012437,12.5080557 L3,12.5 L5.5,12.5 L5.5,10 C5.5,9.72385763 5.72385763,9.5 6,9.5 Z M16,14.5 C16.5522847,14.5 17,14.9477153 17,15.5 C17,16.0522847 16.5522847,16.5 16,16.5 C15.4477153,16.5 15,16.0522847 15,15.5 C15,14.9477153 15.4477153,14.5 16,14.5 Z M13.5,12 C14.0522847,12 14.5,12.4477153 14.5,13 C14.5,13.5522847 14.0522847,14 13.5,14 C12.9477153,14 12.5,13.5522847 12.5,13 C12.5,12.4477153 12.9477153,12 13.5,12 Z M18.5,12 C19.0522847,12 19.5,12.4477153 19.5,13 C19.5,13.5522847 19.0522847,14 18.5,14 C17.9477153,14 17.5,13.5522847 17.5,13 C17.5,12.4477153 17.9477153,12 18.5,12 Z M16,9.5 C16.5522847,9.5 17,9.94771525 17,10.5 C17,11.0522847 16.5522847,11.5 16,11.5 C15.4477153,11.5 15,11.0522847 15,10.5 C15,9.94771525 15.4477153,9.5 16,9.5 Z" id="形状" fill="#C19A5F" fill-rule="nonzero"></path>
                </g>
            </g>
        </g>
    </g>
</svg>