<?xml version="1.0" encoding="UTF-8"?>
<svg width="22px" height="22px" viewBox="0 0 22 22" version="1.1" xmlns="http://www.w3.org/2000/svg" xmlns:xlink="http://www.w3.org/1999/xlink">
    <title>ecology_district</title>
    <g id="页面-2" stroke="none" stroke-width="1" fill="none" fill-rule="evenodd">
        <g id="生态" transform="translate(-16.000000, -273.000000)">
            <g id="编组备份-2" transform="translate(0.000000, 256.000000)">
                <g id="ecology_district" transform="translate(16.000000, 17.000000)">
                    <rect id="矩形" x="0" y="0" width="22" height="22"></rect>
                    <path d="M13,1 C14.1045695,1 15,1.8954305 15,3 L15,5.2 L17.3922323,5.67844645 C18.3270807,5.86541613 19,6.68624577 19,7.63960781 L19,20 L20.5,20 C20.7761424,20 21,20.2238576 21,20.5 C21,20.7761424 20.7761424,21 20.5,21 L1.5,21 C1.22385763,21 1,20.7761424 1,20.5 C1,20.2238576 1.22385763,20 1.5,20 L3,20 L3,3 C3,1.8954305 3.8954305,1 5,1 L13,1 Z M13,2 L5,2 C4.48716416,2 4.06449284,2.38604019 4.00672773,2.88337887 L4,3 L4,20 L14,20 L14,3 C14,2.48716416 13.6139598,2.06449284 13.1166211,2.00672773 L13,2 Z M15,6.22 L15,20 L18,20 L18,7.63960781 C18,7.2026502 17.7172804,6.82137462 17.3101248,6.68885599 L17.1961161,6.65902713 L15,6.22 Z M11.5,9 C11.7761424,9 12,9.22385763 12,9.5 C12,9.77614237 11.7761424,10 11.5,10 L6.5,10 C6.22385763,10 6,9.77614237 6,9.5 C6,9.22385763 6.22385763,9 6.5,9 L11.5,9 Z M11.5,5 C11.7761424,5 12,5.22385763 12,5.5 C12,5.77614237 11.7761424,6 11.5,6 L6.5,6 C6.22385763,6 6,5.77614237 6,5.5 C6,5.22385763 6.22385763,5 6.5,5 L11.5,5 Z" id="形状" fill="#C19A5F"></path>
                </g>
            </g>
        </g>
    </g>
</svg>