<?xml version="1.0" encoding="UTF-8"?>
<svg width="22px" height="22px" viewBox="0 0 22 22" version="1.1" xmlns="http://www.w3.org/2000/svg" xmlns:xlink="http://www.w3.org/1999/xlink">
    <title>ecology_mall</title>
    <g id="页面-2" stroke="none" stroke-width="1" fill="none" fill-rule="evenodd">
        <g id="生态" transform="translate(-16.000000, -329.000000)">
            <g id="编组备份-3" transform="translate(0.000000, 312.000000)">
                <g id="ecology_mall" transform="translate(16.000000, 17.000000)">
                    <rect id="矩形" x="0" y="0" width="22" height="22"></rect>
                    <path d="M17.0975016,1 C18.1632499,1 19.0417853,1.83570608 19.0950062,2.90012477 L19.8950062,18.9001248 C19.9501658,20.0033161 19.1005682,20.9423451 17.9973768,20.9975047 L17.8975016,21 L4.10249844,21 C2.99792894,21 2.10249844,20.1045695 2.10249844,19 L2.10499376,18.9001248 L2.90499376,2.90012477 C2.9582147,1.83570608 3.83675006,1 4.90249844,1 L17.0975016,1 Z M17.0975016,2 L4.90249844,2 C4.40768669,2 3.99358668,2.36029165 3.91564825,2.83787848 L3.9037461,2.95006238 L3.1046818,18.9251014 L3.10249844,19 C3.10249844,19.5128358 3.48853863,19.9355072 3.98587731,19.9932723 L4.10249844,20 L17.8975016,20 L17.9474392,19.9987523 C18.4596352,19.9731425 18.8625012,19.5664768 18.8953583,19.066874 L18.8962539,18.9500624 L18.0962539,2.95006238 C18.0715442,2.45586799 17.6910229,2.06027674 17.2101399,2.00628511 L17.0975016,2 Z M15,4.5 C15.2761424,4.5 15.5,4.72385763 15.5,5 C15.5,7.94280904 13.942809,9.5 11,9.5 C8.05719096,9.5 6.5,7.94280904 6.5,5 C6.5,4.72385763 6.72385763,4.5 7,4.5 C7.27614237,4.5 7.5,4.72385763 7.5,5 C7.5,7.39052429 8.60947571,8.5 11,8.5 C13.3905243,8.5 14.5,7.39052429 14.5,5 C14.5,4.72385763 14.7238576,4.5 15,4.5 Z" id="形状" fill="#C19A5F" fill-rule="nonzero"></path>
                </g>
            </g>
        </g>
    </g>
</svg>