<?xml version="1.0" encoding="UTF-8"?>
<svg width="22px" height="22px" viewBox="0 0 22 22" version="1.1" xmlns="http://www.w3.org/2000/svg" xmlns:xlink="http://www.w3.org/1999/xlink">
    <title>ecology_coin</title>
    <g id="页面-2" stroke="none" stroke-width="1" fill="none" fill-rule="evenodd">
        <g id="生态" transform="translate(-16.000000, -201.000000)">
            <g id="编组备份" transform="translate(0.000000, 184.000000)">
                <g id="ecology_coin" transform="translate(16.000000, 17.000000)">
                    <rect id="矩形" x="0" y="0" width="22" height="22"></rect>
                    <path d="M11,1 C16.5228475,1 21,5.4771525 21,11 C21,16.5228475 16.5228475,21 11,21 C10.8629558,21 10.7265555,20.9972433 10.5908515,20.9917822 C10.5621326,20.9971047 10.5314044,21 10.5,21 L1.5,21 C1.22385763,21 1,20.7761424 1,20.5 C1,20.2238576 1.22385763,20 1.5,20 L6.63931296,20.0016695 C3.3012825,18.3816293 1,14.9595613 1,11 C1,5.4771525 5.4771525,1 11,1 Z M11,2 C6.02943725,2 2,6.02943725 2,11 C2,15.9705627 6.02943725,20 11,20 C15.9705627,20 20,15.9705627 20,11 C20,6.02943725 15.9705627,2 11,2 Z M10.6464466,6.64644661 C10.820013,6.47288026 11.0894374,6.45359511 11.2843055,6.58859116 L11.3535534,6.64644661 L15.3535534,10.6464466 C15.5271197,10.820013 15.5464049,11.0894374 15.4114088,11.2843055 L15.3535534,11.3535534 L11.3535534,15.3535534 C11.179987,15.5271197 10.9105626,15.5464049 10.7156945,15.4114088 L10.6464466,15.3535534 L6.64644661,11.3535534 C6.47288026,11.179987 6.45359511,10.9105626 6.58859116,10.7156945 L6.64644661,10.6464466 L10.6464466,6.64644661 Z M11,7.707 L7.707,11 L11,14.293 L14.293,11 L11,7.707 Z" id="形状" fill="#C19A5F" fill-rule="nonzero"></path>
                </g>
            </g>
        </g>
    </g>
</svg>