<?xml version="1.0" encoding="UTF-8"?>
<svg width="22px" height="22px" viewBox="0 0 22 22" version="1.1" xmlns="http://www.w3.org/2000/svg" xmlns:xlink="http://www.w3.org/1999/xlink">
    <title>ecology_life</title>
    <g id="页面-2" stroke="none" stroke-width="1" fill="none" fill-rule="evenodd">
        <g id="生态" transform="translate(-16.000000, -385.000000)">
            <g id="编组备份-4" transform="translate(0.000000, 368.000000)">
                <g id="ecology_life" transform="translate(16.000000, 17.000000)">
                    <rect id="矩形" x="0" y="0" width="22" height="22"></rect>
                    <path d="M18,9 C19.6568542,9 21,10.3431458 21,12 C21,13.6568542 19.6568542,15 18,15 L16.7478729,15.0003581 C15.8596627,18.4506308 12.7275499,21 9,21 C4.581722,21 1,17.418278 1,13 L1,9 L18,9 Z M16,10 L2,10 L2,13 C2,16.7854517 5.00478338,19.8690987 8.75935025,19.995941 L9,20 C12.7854517,20 15.8690987,16.9952166 15.995941,13.2406498 L16,13 L16,10 Z M18,10 L17,10 L17,14 L18,14 C19.1045695,14 20,13.1045695 20,12 C20,10.9456382 19.1841222,10.0818349 18.1492623,10.0054857 L18,10 Z M8.35355339,1.14644661 C8.52711974,1.32001296 8.54640489,1.58943736 8.41140884,1.7843055 L8.35355339,1.85355339 L3.35355339,6.85355339 C3.15829124,7.04881554 2.84170876,7.04881554 2.64644661,6.85355339 C2.47288026,6.67998704 2.45359511,6.41056264 2.58859116,6.2156945 L2.64644661,6.14644661 L7.64644661,1.14644661 C7.84170876,0.951184464 8.15829124,0.951184464 8.35355339,1.14644661 Z M11.3535534,3.14644661 C11.5271197,3.32001296 11.5464049,3.58943736 11.4114088,3.7843055 L11.3535534,3.85355339 L8.35355339,6.85355339 C8.15829124,7.04881554 7.84170876,7.04881554 7.64644661,6.85355339 C7.47288026,6.67998704 7.45359511,6.41056264 7.58859116,6.2156945 L7.64644661,6.14644661 L10.6464466,3.14644661 C10.8417088,2.95118446 11.1582912,2.95118446 11.3535534,3.14644661 Z M16.3535534,3.14644661 C16.5271197,3.32001296 16.5464049,3.58943736 16.4114088,3.7843055 L16.3535534,3.85355339 L13.3535534,6.85355339 C13.1582912,7.04881554 12.8417088,7.04881554 12.6464466,6.85355339 C12.4728803,6.67998704 12.4535951,6.41056264 12.5885912,6.2156945 L12.6464466,6.14644661 L15.6464466,3.14644661 C15.8417088,2.95118446 16.1582912,2.95118446 16.3535534,3.14644661 Z" id="形状" fill="#C19A5F" fill-rule="nonzero"></path>
                </g>
            </g>
        </g>
    </g>
</svg>