<?xml version="1.0" encoding="UTF-8"?>
<svg width="22px" height="22px" viewBox="0 0 22 22" version="1.1" xmlns="http://www.w3.org/2000/svg" xmlns:xlink="http://www.w3.org/1999/xlink">
    <title>ic_add</title>
    <g id="页面-2" stroke="none" stroke-width="1" fill="none" fill-rule="evenodd">
        <g id="钱包" transform="translate(-337.000000, -319.000000)">
            <g id="编组-6" transform="translate(0.000000, 308.000000)">
                <g id="ic_add" transform="translate(337.000000, 11.000000)">
                    <rect id="矩形" x="0" y="0" width="22" height="22"></rect>
                    <path d="M11,1 C16.5228475,1 21,5.4771525 21,11 C21,16.5228475 16.5228475,21 11,21 C5.4771525,21 1,16.5228475 1,11 C1,5.4771525 5.4771525,1 11,1 Z M11,2 C6.02943725,2 2,6.02943725 2,11 C2,15.9705627 6.02943725,20 11,20 C15.9705627,20 20,15.9705627 20,11 C20,6.02943725 15.9705627,2 11,2 Z M11,5.5 C11.2454599,5.5 11.4496084,5.67687516 11.4919443,5.91012437 L11.5,6 L11.5,10.5 L16,10.5 C16.2761424,10.5 16.5,10.7238576 16.5,11 C16.5,11.2454599 16.3231248,11.4496084 16.0898756,11.4919443 L16,11.5 L11.5,11.5 L11.5,16 C11.5,16.2761424 11.2761424,16.5 11,16.5 C10.7545401,16.5 10.5503916,16.3231248 10.5080557,16.0898756 L10.5,16 L10.5,11.5 L6,11.5 C5.72385763,11.5 5.5,11.2761424 5.5,11 C5.5,10.7545401 5.67687516,10.5503916 5.91012437,10.5080557 L6,10.5 L10.5,10.5 L10.5,6 C10.5,5.72385763 10.7238576,5.5 11,5.5 Z" id="形状" fill="#1F1F1F" fill-rule="nonzero"></path>
                </g>
            </g>
        </g>
    </g>
</svg>