<?xml version="1.0" encoding="UTF-8"?>
<svg width="22px" height="22px" viewBox="0 0 22 22" version="1.1" xmlns="http://www.w3.org/2000/svg" xmlns:xlink="http://www.w3.org/1999/xlink">
    <title>ic_back</title>
    <g id="页面-2" stroke="none" stroke-width="1" fill="none" fill-rule="evenodd">
        <g id="选择钱包" transform="translate(-16.000000, -55.000000)">
            <g id="ic_back" transform="translate(16.000000, 55.000000)">
                <rect id="矩形" x="0" y="0" width="22" height="22"></rect>
                <path d="M9.70710678,3.29289322 C10.0675907,3.65337718 10.0953203,4.22060824 9.79029539,4.61289944 L9.70710678,4.70710678 L4.415,10 L20,10 C20.5522847,10 21,10.4477153 21,11 C21,11.5128358 20.6139598,11.9355072 20.1166211,11.9932723 L20,12 L4.415,12 L9.70710678,17.2928932 C10.0675907,17.6533772 10.0953203,18.2206082 9.79029539,18.6128994 L9.70710678,18.7071068 C9.34662282,19.0675907 8.77939176,19.0953203 8.38710056,18.7902954 L8.29289322,18.7071068 L1.29289322,11.7071068 L1.21968877,11.625449 C1.2173721,11.6225624 1.21507113,11.6196628 1.21278596,11.6167501 L1.29289322,11.7071068 C1.25749917,11.6717127 1.22531295,11.6343256 1.19633458,11.5953066 C1.17849009,11.5711307 1.1617187,11.546275 1.14606743,11.5206602 C1.13860692,11.5086131 1.13149883,11.4963944 1.12467117,11.4840621 C1.11379392,11.4642939 1.10337664,11.4438914 1.09365378,11.4230991 C1.08567905,11.4060985 1.07819642,11.3887956 1.07122549,11.371336 C1.06331574,11.3515792 1.05612249,11.3317977 1.04954668,11.3117364 C1.04472872,11.2968513 1.04009773,11.2814633 1.03584514,11.265993 C1.02983363,11.2444365 1.0246398,11.2227461 1.02016515,11.2007941 C1.01670217,11.1833753 1.01362808,11.165949 1.0110178,11.1484669 C1.00810098,11.1294204 1.00574796,11.1096949 1.00397748,11.0898018 C1.00189498,11.0659949 1.00063489,11.042681 1.00018615,11.0193545 C1.00006128,11.0129086 1,11.0064615 1,11 L1.00016755,10.9816379 C1.00059932,10.9579802 1.0018656,10.9343349 1.00396641,10.9107499 L1,11 C1,10.9493797 1.00376119,10.8996379 1.01101934,10.8510388 C1.01362808,10.834051 1.01670217,10.8166247 1.02024007,10.7992742 C1.0246398,10.7772539 1.02983363,10.7555635 1.03572097,10.7341604 C1.04009773,10.7185367 1.04472872,10.7031487 1.04973809,10.6878575 C1.05612249,10.6682023 1.06331574,10.6484208 1.07110396,10.6289415 C1.07819642,10.6112044 1.08567905,10.5939015 1.09367336,10.5767785 C1.10337664,10.5561086 1.11379392,10.5357061 1.12487577,10.515723 C1.13149883,10.5036056 1.13860692,10.4913869 1.14599545,10.4792912 C1.1617187,10.453725 1.17849009,10.4288693 1.19631351,10.4048407 C1.20071786,10.3987914 1.20517454,10.3929267 1.20970461,10.3871006 C1.23766884,10.3515341 1.26442691,10.3213595 1.29289322,10.2928932 L8.29289322,3.29289322 C8.68341751,2.90236893 9.31658249,2.90236893 9.70710678,3.29289322 Z" id="形状结合" fill="#1F1F1F" fill-rule="nonzero"></path>
            </g>
        </g>
    </g>
</svg>