<?xml version="1.0" encoding="UTF-8"?>
<svg width="22px" height="22px" viewBox="0 0 22 22" version="1.1" xmlns="http://www.w3.org/2000/svg" xmlns:xlink="http://www.w3.org/1999/xlink">
    <title>ic_deposit</title>
    <g id="页面-2" stroke="none" stroke-width="1" fill="none" fill-rule="evenodd">
        <g id="资产详情" transform="translate(-16.000000, -337.000000)">
            <g id="编组" transform="translate(0.000000, 308.000000)">
                <g id="ic_deposit" transform="translate(16.000000, 29.000000)">
                    <rect id="矩形" x="0" y="0" width="22" height="22"></rect>
                    <path d="M3.22182541,3.22182541 C3.6123497,2.83130112 4.24551468,2.83130112 4.63603897,3.22182541 C5.02656326,3.6123497 5.02656326,4.24551468 4.63603897,4.63603897 C1.12132034,8.15075759 1.12132034,13.8492424 4.63603897,17.363961 C8.15075759,20.8786797 13.8492424,20.8786797 17.363961,17.363961 C20.8786797,13.8492424 20.8786797,8.15075759 17.363961,4.63603897 C16.9734367,4.24551468 16.9734367,3.6123497 17.363961,3.22182541 C17.7544853,2.83130112 18.3876503,2.83130112 18.7781746,3.22182541 C23.0739418,7.51759262 23.0739418,14.4824074 18.7781746,18.7781746 C14.4824074,23.0739418 7.51759262,23.0739418 3.22182541,18.7781746 C-1.0739418,14.4824074 -1.0739418,7.51759262 3.22182541,3.22182541 Z" id="路径" fill="#52CC95" fill-rule="nonzero" opacity="0.5"></path>
                    <path d="M11,0 C11.5128358,0 11.9355072,0.38604019 11.9932723,0.883378875 L12,1 L12,11.585 L14.2928932,9.29289322 C14.6533772,8.93240926 15.2206082,8.90467972 15.6128994,9.20970461 L15.7071068,9.29289322 C16.0675907,9.65337718 16.0953203,10.2206082 15.7902954,10.6128994 L15.7071068,10.7071068 L11.7071068,14.7071068 C11.3466228,15.0675907 10.7793918,15.0953203 10.3871006,14.7902954 L10.2928932,14.7071068 L6.29289322,10.7071068 C5.90236893,10.3165825 5.90236893,9.68341751 6.29289322,9.29289322 C6.65337718,8.93240926 7.22060824,8.90467972 7.61289944,9.20970461 L7.70710678,9.29289322 L10,11.585 L10,1 C10,0.44771525 10.4477153,0 11,0 Z" id="路径" fill="#52CC95" fill-rule="nonzero"></path>
                </g>
            </g>
        </g>
    </g>
</svg>