<?xml version="1.0" encoding="UTF-8"?>
<svg width="22px" height="22px" viewBox="0 0 22 22" version="1.1" xmlns="http://www.w3.org/2000/svg" xmlns:xlink="http://www.w3.org/1999/xlink">
    <title>ic_eye_open</title>
    <g id="页面-2" stroke="none" stroke-width="1" fill="none" fill-rule="evenodd">
        <g id="钱包" transform="translate(-321.000000, -175.000000)">
            <g id="ETH-+-0x3383c5a89...a1408e-+-编组-9-+-$-+-1.56-+-编组-8-+-编组-8备份-蒙版" transform="translate(16.000000, 104.000000)">
                <g id="ic_eye_open" transform="translate(305.000000, 71.000000)">
                    <rect id="矩形" x="0" y="0" width="22" height="22"></rect>
                    <path d="M11,4 C14.2740713,4 17.4432981,6.05045459 20.528036,10.042706 L20.8,10.4 L21.25,11 L20.8,11.6 C17.6296325,15.8271567 14.3703675,18 11,18 C7.7259287,18 4.55670193,15.9495454 1.47196401,11.957294 L1.2,11.6 L0.75,11 L1.47196401,10.042706 C4.55670193,6.05045459 7.7259287,4 11,4 Z M11,6 C8.60942502,6 6.12702974,7.51004685 3.5694972,10.6191938 L3.262,11 L3.5694972,11.3808062 C5.95652757,14.2826767 8.27810504,15.7915533 10.5206657,15.9798397 L10.7606371,15.9949632 L11,16 C13.390575,16 15.8729703,14.4899531 18.4305028,11.3808062 L18.737,11 L18.4305028,10.6191938 C16.0434724,7.71732332 13.721895,6.20844669 11.4793343,6.02016034 L11.2393629,6.00503679 L11,6 Z M11,8 C11.0879049,8 11.1749268,8.00378078 11.2609119,8.01118859 C11.0948004,8.30333486 11,8.64059652 11,9 C11,10.1045695 11.8954305,11 13,11 C13.3593378,11 13.6965418,10.9052342 13.9879835,10.7393313 C13.9962192,10.8250732 14,10.9120951 14,11 C14,12.6568542 12.6568542,14 11,14 C9.34314575,14 8,12.6568542 8,11 C8,9.34314575 9.34314575,8 11,8 Z" id="形状" fill="#FFFFFF" fill-rule="nonzero"></path>
                </g>
            </g>
        </g>
    </g>
</svg>