<?xml version="1.0" encoding="UTF-8"?>
<svg width="22px" height="22px" viewBox="0 0 22 22" version="1.1" xmlns="http://www.w3.org/2000/svg" xmlns:xlink="http://www.w3.org/1999/xlink">
    <title>ic_failed</title>
    <g id="页面-2" stroke="none" stroke-width="1" fill="none" fill-rule="evenodd">
        <g id="资产详情" transform="translate(-16.000000, -497.000000)" fill="#D04B63" fill-rule="nonzero">
            <g id="编组备份-4" transform="translate(0.000000, 468.000000)">
                <g id="ic_failed" transform="translate(16.000000, 29.000000)">
                    <path d="M11,0 C17.0751322,0 22,4.92486775 22,11 C22,17.0751322 17.0751322,22 11,22 C4.92486775,22 0,17.0751322 0,11 C0,4.92486775 4.92486775,0 11,0 Z M11,2 C6.02943725,2 2,6.02943725 2,11 C2,15.9705627 6.02943725,20 11,20 C15.9705627,20 20,15.9705627 20,11 C20,6.02943725 15.9705627,2 11,2 Z" id="椭圆形" opacity="0.5"></path>
                    <path d="M7.61289944,6.20970461 L7.70710678,6.29289322 L11,9.585 L14.2928932,6.29289322 L14.3871006,6.20970461 C14.7793918,5.90467972 15.3466228,5.93240926 15.7071068,6.29289322 C16.0675907,6.65337718 16.0953203,7.22060824 15.7902954,7.61289944 L15.7071068,7.70710678 L12.415,11 L15.7071068,14.2928932 C16.0976311,14.6834175 16.0976311,15.3165825 15.7071068,15.7071068 C15.3466228,16.0675907 14.7793918,16.0953203 14.3871006,15.7902954 L14.2928932,15.7071068 L11,12.415 L7.70710678,15.7071068 L7.61289944,15.7902954 C7.22060824,16.0953203 6.65337718,16.0675907 6.29289322,15.7071068 C5.93240926,15.3466228 5.90467972,14.7793918 6.20970461,14.3871006 L6.29289322,14.2928932 L9.585,11 L6.29289322,7.70710678 C5.90236893,7.31658249 5.90236893,6.68341751 6.29289322,6.29289322 C6.65337718,5.93240926 7.22060824,5.90467972 7.61289944,6.20970461 Z" id="路径"></path>
                </g>
            </g>
        </g>
    </g>
</svg>