<?xml version="1.0" encoding="UTF-8"?>
<svg width="22px" height="22px" viewBox="0 0 22 22" version="1.1" xmlns="http://www.w3.org/2000/svg" xmlns:xlink="http://www.w3.org/1999/xlink">
    <title>ic_import_gray</title>
    <g id="页面-2" stroke="none" stroke-width="1" fill="none" fill-rule="evenodd">
        <g id="选择钱包" transform="translate(-234.000000, -742.000000)">
            <g id="Bars/Tab-Bar/Compact/Dark---3-Tabs" transform="translate(0.000000, 728.000000)">
                <g id="编组-6" transform="translate(203.000000, 3.000000)">
                    <g id="ic_import_gray" transform="translate(31.000000, 11.000000)">
                        <rect id="矩形备份" x="0" y="0" width="22" height="22"></rect>
                        <path d="M19,12 C19.5128358,12 19.9355072,12.3860402 19.9932723,12.8833789 L20,13 L20,19 C20,19.5128358 19.6139598,19.9355072 19.1166211,19.9932723 L19,20 L3,20 C2.48716416,20 2.06449284,19.6139598 2.00672773,19.1166211 L2,19 L2,13 C2,12.4477153 2.44771525,12 3,12 C3.51283584,12 3.93550716,12.3860402 3.99327227,12.8833789 L4,13 L4,18 L18,18 L18,13 C18,12.4871642 18.3860402,12.0644928 18.8833789,12.0067277 L19,12 Z M11,2 C11.5128358,2 11.9355072,2.38604019 11.9932723,2.88337887 L12,3 L12,11.585 L15.2928932,8.29289322 C15.6533772,7.93240926 16.2206082,7.90467972 16.6128994,8.20970461 L16.7071068,8.29289322 C17.0675907,8.65337718 17.0953203,9.22060824 16.7902954,9.61289944 L16.7071068,9.70710678 L11.7071068,14.7071068 C11.3466228,15.0675907 10.7793918,15.0953203 10.3871006,14.7902954 L10.2928932,14.7071068 L5.29289322,9.70710678 C4.90236893,9.31658249 4.90236893,8.68341751 5.29289322,8.29289322 C5.65337718,7.93240926 6.22060824,7.90467972 6.61289944,8.20970461 L6.70710678,8.29289322 L10,11.585 L10,3 C10,2.44771525 10.4477153,2 11,2 Z" id="形状" fill="#666666" fill-rule="nonzero"></path>
                    </g>
                </g>
            </g>
        </g>
    </g>
</svg>