<?xml version="1.0" encoding="UTF-8"?>
<svg width="22px" height="22px" viewBox="0 0 22 22" version="1.1" xmlns="http://www.w3.org/2000/svg" xmlns:xlink="http://www.w3.org/1999/xlink">
    <title>ic_more</title>
    <g id="页面-2" stroke="none" stroke-width="1" fill="none" fill-rule="evenodd">
        <g id="钱包" transform="translate(-321.000000, -116.000000)">
            <g id="ETH-+-0x3383c5a89...a1408e-+-编组-9-+-$-+-1.56-+-编组-8-+-编组-8备份-蒙版" transform="translate(16.000000, 104.000000)">
                <g id="ic_more" transform="translate(305.000000, 12.000000)">
                    <rect id="矩形" x="0" y="0" width="22" height="22"></rect>
                    <path d="M3,9 C4.1045695,9 5,9.8954305 5,11 C5,12.1045695 4.1045695,13 3,13 C1.8954305,13 1,12.1045695 1,11 C1,9.8954305 1.8954305,9 3,9 Z M11,9 C12.1045695,9 13,9.8954305 13,11 C13,12.1045695 12.1045695,13 11,13 C9.8954305,13 9,12.1045695 9,11 C9,9.8954305 9.8954305,9 11,9 Z M19,9 C20.1045695,9 21,9.8954305 21,11 C21,12.1045695 20.1045695,13 19,13 C17.8954305,13 17,12.1045695 17,11 C17,9.8954305 17.8954305,9 19,9 Z" id="形状" fill="#FFFFFF"></path>
                </g>
            </g>
        </g>
    </g>
</svg>