<?xml version="1.0" encoding="UTF-8"?>
<svg width="22px" height="22px" viewBox="0 0 22 22" version="1.1" xmlns="http://www.w3.org/2000/svg" xmlns:xlink="http://www.w3.org/1999/xlink">
    <title>ic_withdraw</title>
    <g id="页面-2" stroke="none" stroke-width="1" fill="none" fill-rule="evenodd">
        <g id="资产详情" transform="translate(-16.000000, -417.000000)">
            <g id="编组备份-3" transform="translate(0.000000, 388.000000)">
                <g id="ic_withdraw" transform="translate(16.000000, 29.000000)">
                    <rect id="矩形" x="0" y="0" width="22" height="22"></rect>
                    <path d="M3.22182541,3.22182541 C3.6123497,2.83130112 4.24551468,2.83130112 4.63603897,3.22182541 C5.02656326,3.6123497 5.02656326,4.24551468 4.63603897,4.63603897 C1.12132034,8.15075759 1.12132034,13.8492424 4.63603897,17.363961 C8.15075759,20.8786797 13.8492424,20.8786797 17.363961,17.363961 C20.8786797,13.8492424 20.8786797,8.15075759 17.363961,4.63603897 C16.9734367,4.24551468 16.9734367,3.6123497 17.363961,3.22182541 C17.7544853,2.83130112 18.3876503,2.83130112 18.7781746,3.22182541 C23.0739418,7.51759262 23.0739418,14.4824074 18.7781746,18.7781746 C14.4824074,23.0739418 7.51759262,23.0739418 3.22182541,18.7781746 C-1.0739418,14.4824074 -1.0739418,7.51759262 3.22182541,3.22182541 Z" id="路径" fill="#3D8CFF" fill-rule="nonzero" opacity="0.5"></path>
                    <path d="M10.8515331,0.0110178009 L10.909968,0.00399798209 L10.909968,0.00399798209 L11,0 L11.0752385,0.00278786299 L11.0752385,0.00278786299 L11.2007258,0.020240071 L11.2007258,0.020240071 L11.3121425,0.0497380859 L11.3121425,0.0497380859 L11.4232215,0.0936733617 L11.4232215,0.0936733617 L11.5207088,0.145995454 L11.5207088,0.145995454 L11.625449,0.219688767 L11.625449,0.219688767 L11.7071068,0.292893219 L15.7071068,4.29289322 L15.7902954,4.38710056 C16.0699015,4.74670083 16.0699015,5.25329917 15.7902954,5.61289944 L15.7071068,5.70710678 L15.6128994,5.79029539 C15.2532992,6.06990154 14.7467008,6.06990154 14.3871006,5.79029539 L14.2928932,5.70710678 L12,3.415 L12,14 C12,14.5522847 11.5522847,15 11,15 C10.4871642,15 10.0644928,14.6139598 10.0067277,14.1166211 L10,14 L10,3.415 L7.70710678,5.70710678 L7.61289944,5.79029539 C7.22060824,6.09532028 6.65337718,6.06759074 6.29289322,5.70710678 C5.93240926,5.34662282 5.90467972,4.77939176 6.20970461,4.38710056 L6.29289322,4.29289322 L10.2928932,0.292893219 L10.4046934,0.196334578 L10.4046934,0.196334578 L10.5159379,0.124671174 L10.5159379,0.124671174 L10.628664,0.0712254916 L10.628664,0.0712254916 L10.734007,0.0358451423 L10.734007,0.0358451423 L10.8515331,0.0110178009 L10.8515331,0.0110178009 Z" id="路径" fill="#3D8CFF" fill-rule="nonzero"></path>
                </g>
            </g>
        </g>
    </g>
</svg>