<?xml version="1.0" encoding="UTF-8"?>
<svg width="22px" height="22px" viewBox="0 0 22 22" version="1.1" xmlns="http://www.w3.org/2000/svg" xmlns:xlink="http://www.w3.org/1999/xlink">
    <title>ico_search</title>
    <g id="页面-2" stroke="none" stroke-width="1" fill="none" fill-rule="evenodd">
        <g id="添加币种" transform="translate(-29.000000, -117.000000)">
            <g id="编组" transform="translate(16.000000, 104.000000)">
                <g id="ico_search" transform="translate(13.000000, 13.000000)">
                    <rect id="矩形" x="0" y="0" width="22" height="22"></rect>
                    <path d="M10,2 C14.418278,2 18,5.581722 18,10 C18,11.8482015 17.3732643,13.550021 16.3207287,14.9045228 L19.7071068,18.2928932 C20.0976311,18.6834175 20.0976311,19.3165825 19.7071068,19.7071068 C19.3466228,20.0675907 18.7793918,20.0953203 18.3871006,19.7902954 L18.2928932,19.7071068 L14.9045228,16.3207287 C13.550021,17.3732643 11.8482015,18 10,18 C5.581722,18 2,14.418278 2,10 C2,5.581722 5.581722,2 10,2 Z M10,4 C6.6862915,4 4,6.6862915 4,10 C4,13.3137085 6.6862915,16 10,16 C13.3137085,16 16,13.3137085 16,10 C16,6.6862915 13.3137085,4 10,4 Z" id="形状" fill="#1F1F1F"></path>
                </g>
            </g>
        </g>
    </g>
</svg>