<?xml version="1.0" encoding="UTF-8"?>
<svg width="40px" height="40px" viewBox="0 0 40 40" version="1.1" xmlns="http://www.w3.org/2000/svg" xmlns:xlink="http://www.w3.org/1999/xlink">
    <title>img_logo_gray</title>
    <g id="页面-2" stroke="none" stroke-width="1" fill="none" fill-rule="evenodd">
        <g id="收款" transform="translate(-168.000000, -687.000000)" fill="#404040">
            <path d="M170.83164,710.189649 C172.257743,718.524006 179.399007,724.862401 188.000116,724.862401 C196.515327,724.862401 203.599406,718.65014 205.124207,710.439077 L205.168707,710.189649 L207.170128,710.189649 C207.619269,710.189649 207.984806,710.552277 207.999538,711.005393 L208,711.033828 L208,726.155821 C208,726.61259 207.64363,726.984539 207.198088,726.99953 L207.170128,727 L168.830103,727 C168.381075,727 168.015208,726.637373 168.000462,726.184256 L168,726.155821 L168,711.033828 C168,710.577059 168.356703,710.20511 168.802149,710.190119 L168.830103,710.189649 L170.83164,710.189649 Z M194.579396,704.131355 L194.579396,713.691664 L181.402555,713.691664 L181.402555,710.54956 L183.342851,710.54956 L183.342851,711.633287 L192.639101,711.633287 L192.639101,706.188909 L184.155737,706.188909 L184.155737,704.131355 L194.579396,704.131355 Z M194.57942,700.285345 L194.57942,703.185903 L192.639124,703.185903 L192.639124,702.343017 L183.342874,702.343017 L183.342874,707.495541 L191.969749,707.495541 L191.969749,709.546512 L181.402578,709.546512 L181.402578,700.285345 L194.57942,700.285345 Z M184.932779,687 C185.187239,687 185.39487,687.203477 185.40722,687.459205 L185.407801,687.483328 L185.407801,689.592013 C177.709701,690.75974 171.657115,697.0475 170.701898,704.941073 L170.674516,705.18076 L168.843992,705.18076 C168.387303,705.18076 168.015177,704.811735 168.000474,704.350698 L168.000023,704.322359 L168.000023,687.858401 C168.000023,687.39384 168.363016,687.01541 168.816139,687.000459 L168.843992,687 L184.932779,687 Z M207.144892,687 C207.607809,687 207.98461,687.373992 207.999497,687.841091 L207.999954,687.869803 L207.999954,704.310957 C207.999954,704.781739 207.632411,705.165147 207.173233,705.180295 L207.145008,705.18076 L205.325692,705.18076 C204.473805,697.255105 198.489454,690.899651 190.824945,689.628844 L190.592176,689.591895 L190.592176,687.479567 C190.592176,687.222772 190.790683,687.013061 191.040089,687.000587 L191.063615,687 L207.144892,687 Z" id="img_logo_gray"></path>
        </g>
    </g>
</svg>