<?xml version="1.0" encoding="UTF-8"?>
<svg width="64px" height="64px" viewBox="0 0 64 64" version="1.1" xmlns="http://www.w3.org/2000/svg" xmlns:xlink="http://www.w3.org/1999/xlink">
    <title>img_logo</title>
    <defs>
        <path d="M4.53062333,37.103439 C6.81238915,50.43841 18.2384119,60.5798411 32.0001849,60.5798411 C45.6245232,60.5798411 56.959049,50.6402245 59.398731,37.5025231 L59.4699313,37.103439 L62.6722053,37.103439 C63.3908304,37.103439 63.975689,37.6836425 63.9992614,38.408629 L64,38.4541252 L64,62.6493137 C64,63.3801438 63.4298072,63.9752623 62.7169413,63.9992485 L62.6722053,64 L1.32816445,64 C0.60972051,64 0.0243333801,63.4197964 0.000739254784,62.6948099 L0,62.6493137 L0,38.4541252 C0,37.7232951 0.570725009,37.1281767 1.28343883,37.1041905 L1.32816445,37.103439 L4.53062333,37.103439 Z M27.0924472,0 C27.4995824,0 27.8317912,0.325562936 27.8515512,0.73472845 L27.8524811,0.773325262 L27.8524811,4.14722001 C15.5355214,6.01558475 5.85138396,16.076 4.32303748,28.7057172 L4.27922605,29.0892165 L1.3503868,29.0892165 C0.619685592,29.0892165 0.0242827803,28.498776 0.000758948367,27.7611172 L3.6975625e-05,27.7157743 L3.6975625e-05,1.37344222 C3.6975625e-05,0.630143488 0.580825763,0.0246563626 1.30582275,0.00073419711 L1.3503868,0 L27.0924472,0 Z M62.6318279,0 C63.3724941,0 63.975376,0.598387729 63.999195,1.34574564 L63.999926,1.39168457 L63.999926,27.6975319 C63.999926,28.4507831 63.4118574,29.0642358 62.6771729,29.0884726 L62.6320128,29.0892165 L59.7211067,29.0892165 C58.3580872,16.4081679 48.7831267,6.23944154 36.5199116,4.20615083 L36.1474819,4.14703194 L36.1474819,0.767307167 C36.1474819,0.356435379 36.4650934,0.0208975462 36.8641424,0.000939212739 L36.9017847,0 L62.6318279,0 Z" id="path-1"></path>
    </defs>
    <g id="页面-2" stroke="none" stroke-width="1" fill="none" fill-rule="evenodd">
        <g id="启始页" transform="translate(-156.000000, -186.000000)">
            <g id="img_logo" transform="translate(156.000000, 186.000000)">
                <g id="椭圆形" transform="translate(-0.000000, 0.000000)">
                    <mask id="mask-2" fill="white">
                        <use xlink:href="#path-1"></use>
                    </mask>
                    <use id="蒙版" fill="#FFFFFF" xlink:href="#path-1"></use>
                    <circle fill="#D4B483" mask="url(#mask-2)" cx="32" cy="32" r="31"></circle>
                </g>
                <polygon id="路径" fill="#FFFFFF" points="42.5270344 27.4101679 42.5270344 42.7066619 21.4440877 42.7066619 21.4440877 37.6792955 24.5485611 37.6792955 24.5485611 39.4132592 39.4225609 39.4132592 39.4225609 30.7022541 25.8491787 30.7022541 25.8491787 27.4101679"></polygon>
                <polygon id="路径" fill="#FFFFFF" points="42.5270714 21.2565525 42.5270714 25.8974444 39.4225979 25.8974444 39.4225979 24.5488268 24.5485981 24.5488268 24.5485981 32.7928653 38.3515989 32.7928653 38.3515989 36.0744199 21.4441246 36.0744199 21.4441246 21.2565525"></polygon>
            </g>
        </g>
    </g>
</svg>