<?xml version="1.0" encoding="UTF-8"?>
<svg width="44px" height="44px" viewBox="0 0 44 44" version="1.1" xmlns="http://www.w3.org/2000/svg" xmlns:xlink="http://www.w3.org/1999/xlink">
    <title>img_taichi</title>
    <g id="页面-2" stroke="none" stroke-width="1" fill="none" fill-rule="evenodd">
        <g id="启始页" transform="translate(-166.000000, -423.000000)" fill-rule="nonzero">
            <g id="img_taichi" transform="translate(166.000000, 423.000000)">
                <path d="M22,44 C28.0751797,44 33,39.0751797 33,33 C33,26.9248203 28.0751797,22 22,22 C15.9248203,22 11,17.0751797 11,11 C11,4.92482031 15.9248203,0 22,0 C34.1502734,0 44,9.84972656 44,22 C44,34.1502734 34.1502734,44 22,44 Z" id="路径" fill="#FFFFFF"></path>
                <path d="M22,0 C15.9248203,0 11,4.92482031 11,11 C11,17.0751797 15.9248203,22 22,22 C28.0751797,22 33,26.9248203 33,33 C33,39.0751797 28.0751797,44 22,44 C9.84972656,44 0,34.1502734 0,22 C0,9.84972656 9.84972656,0 22,0 Z" id="路径" fill="#1F1F1F"></path>
                <path d="M18.0714531,33 C18.0714531,35.1696765 19.8303235,36.9285469 22,36.9285469 C24.1696765,36.9285469 25.9285469,35.1696765 25.9285469,33 C25.9285469,30.8303235 24.1696765,29.0714531 22,29.0714531 C19.8303235,29.0714531 18.0714531,30.8303235 18.0714531,33 L18.0714531,33 Z" id="路径" fill="#EDEDEE"></path>
                <path d="M18.0714531,11 C18.0714531,13.1696765 19.8303235,14.9285469 22,14.9285469 C24.1696765,14.9285469 25.9285469,13.1696765 25.9285469,11 C25.9285469,8.83032347 24.1696765,7.07145312 22,7.07145312 C19.8303235,7.07145312 18.0714531,8.83032347 18.0714531,11 Z" id="路径" fill="#1F1F1F"></path>
            </g>
        </g>
    </g>
</svg>