<?xml version="1.0" encoding="UTF-8"?>
<svg width="22px" height="22px" viewBox="0 0 22 22" version="1.1" xmlns="http://www.w3.org/2000/svg" xmlns:xlink="http://www.w3.org/1999/xlink">
    <title>me_address</title>
    <defs>
        <linearGradient x1="50%" y1="0%" x2="50%" y2="100%" id="linearGradient-1">
            <stop stop-color="#ECDBB9" offset="0%"></stop>
            <stop stop-color="#D4B483" offset="100%"></stop>
        </linearGradient>
    </defs>
    <g id="页面-2" stroke="none" stroke-width="1" fill="none" fill-rule="evenodd">
        <g id="我的" transform="translate(-16.000000, -129.000000)">
            <g id="编组备份" transform="translate(0.000000, 112.000000)">
                <g id="me_address" transform="translate(16.000000, 17.000000)">
                    <rect id="矩形" x="0" y="0" width="22" height="22"></rect>
                    <path d="M18,1 C19.1045695,1 20,1.8954305 20,3 L20,19 C20,20.1045695 19.1045695,21 18,21 L4,21 C2.8954305,21 2,20.1045695 2,19 L2,3 C2,1.8954305 2.8954305,1 4,1 L18,1 Z M11,13 C9.42979437,13 7.87685686,13.5089083 6.35549624,14.5060291 C5.58280654,15.0124606 5.08755096,15.8459298 5.01051253,16.7640239 L5.00096623,16.9630508 L5.00187799,17.0682573 L5.00860572,17.1778784 C5.13003708,18.236154 5.98205115,19 7,19 L15,19 C16.1045695,19 17,18.1045695 17,17 C16.9923595,15.9891339 16.4837152,15.0560737 15.6445856,14.5060827 C14.1231968,13.5089259 12.5702329,13 11,13 Z M11,15 C12.160706,15 13.3386811,15.3860373 14.5482341,16.1788091 L14.6478501,16.2533395 C14.8363104,16.4135568 14.9588083,16.638268 14.9913597,16.8834774 L14.999,17 L7.001,17 L7.00604423,16.8915905 C7.02916946,16.6254468 7.19429186,16.3475611 7.45183125,16.1787662 C8.66136146,15.3860234 9.83931479,15 11,15 Z M11,4 C8.790861,4 7,5.790861 7,8 C7,10.209139 8.790861,12 11,12 C13.209139,12 15,10.209139 15,8 C15,5.790861 13.209139,4 11,4 Z M11,6 C12.1045695,6 13,6.8954305 13,8 C13,9.1045695 12.1045695,10 11,10 C9.8954305,10 9,9.1045695 9,8 C9,6.8954305 9.8954305,6 11,6 Z" id="形状" fill="url(#linearGradient-1)"></path>
                </g>
            </g>
        </g>
    </g>
</svg>