<?xml version="1.0" encoding="UTF-8"?>
<svg width="22px" height="22px" viewBox="0 0 22 22" version="1.1" xmlns="http://www.w3.org/2000/svg" xmlns:xlink="http://www.w3.org/1999/xlink">
    <title>me_about</title>
    <defs>
        <linearGradient x1="50%" y1="0%" x2="50%" y2="100%" id="linearGradient-1">
            <stop stop-color="#ECDBB9" offset="0%"></stop>
            <stop stop-color="#D4B483" offset="100%"></stop>
        </linearGradient>
    </defs>
    <g id="页面-2" stroke="none" stroke-width="1" fill="none" fill-rule="evenodd">
        <g id="我的" transform="translate(-16.000000, -369.000000)">
            <g id="编组备份-5" transform="translate(0.000000, 352.000000)">
                <g id="me_about" transform="translate(16.000000, 17.000000)">
                    <rect id="矩形" x="0" y="0" width="22" height="22"></rect>
                    <path d="M10.8720413,1.00084148 C6.82303832,1.0526222 3.204964,3.54121865 1.70836131,7.30383571 C0.211758631,11.0664528 1.13210389,15.3602318 4.03936636,18.1789074 C6.94662883,20.9975829 11.2668237,21.7846599 14.9813427,20.1723772 C18.6958617,18.5600945 21.0713422,14.8667672 20.9978425,10.8181002 C20.8979812,5.31732762 16.3732705,0.93048896 10.8720413,1.00084148 Z M11.9799891,4.3246848 C12.3444998,4.26595242 12.7150446,4.38580226 12.9761169,4.64687458 C13.2371893,4.9079469 13.3570391,5.27849174 13.2983067,5.6430024 C13.2382505,6.55046733 12.4681257,7.24606389 11.5592495,7.21376379 C10.5915482,7.21376379 10.1567839,6.72290086 10.1567839,5.89544619 C10.2313303,4.95484585 11.0532578,4.25212925 11.9940138,4.3246848 L11.9799891,4.3246848 Z M9.34335393,17.2273677 C8.64212115,17.2273677 8.13723357,16.806628 8.6280965,14.9553736 L9.46957582,11.6736042 C9.59579771,11.1406673 9.62384703,10.9302975 9.46957582,10.9302975 C8.8850338,11.0780556 8.33007071,11.3247059 7.82869113,11.6595795 L7.49209941,11.0985933 C8.75251632,9.95107433 10.3057238,9.1744706 11.9799891,8.85464848 C12.6812219,8.85464848 12.7793945,9.6680785 12.4428028,10.9443221 L11.5312002,14.3943873 C11.3769289,14.9974475 11.4330276,15.2078173 11.5312002,15.2078173 C12.1067646,15.0779199 12.6414438,14.8081719 13.0879369,14.4224366 L13.4806272,14.9553736 C12.4263651,16.1288761 11.0181487,16.9265371 9.46957582,17.2273677 L9.34335393,17.2273677 Z" id="形状" fill="url(#linearGradient-1)"></path>
                </g>
            </g>
        </g>
    </g>
</svg>