<?xml version="1.0" encoding="UTF-8"?>
<svg width="22px" height="22px" viewBox="0 0 22 22" version="1.1" xmlns="http://www.w3.org/2000/svg" xmlns:xlink="http://www.w3.org/1999/xlink">
    <title>me_help</title>
    <defs>
        <linearGradient x1="50%" y1="0%" x2="50%" y2="100%" id="linearGradient-1">
            <stop stop-color="#ECDBB9" offset="0%"></stop>
            <stop stop-color="#D4B483" offset="100%"></stop>
        </linearGradient>
    </defs>
    <g id="页面-2" stroke="none" stroke-width="1" fill="none" fill-rule="evenodd">
        <g id="我的" transform="translate(-16.000000, -257.000000)">
            <g id="编组备份-4" transform="translate(0.000000, 240.000000)">
                <g id="me_help" transform="translate(16.000000, 17.000000)">
                    <rect id="矩形" x="0" y="0" width="22" height="22"></rect>
                    <path d="M11,1 C16.5228475,1 21,5.4771525 21,11 C21,16.5228475 16.5228475,21 11,21 C5.4771525,21 1,16.5228475 1,11 C1,5.4771525 5.4771525,1 11,1 Z M10.578,15.08 C10.4055862,15.08 10.2451456,15.1135249 10.0966782,15.1805747 C9.94821073,15.2476245 9.81650575,15.3386207 9.70156322,15.4535632 C9.58662069,15.5685057 9.49562452,15.7002107 9.42857471,15.8486782 C9.3615249,15.9971456 9.328,16.1575862 9.328,16.33 C9.328,16.5024138 9.3615249,16.6628544 9.42857471,16.8113218 C9.49562452,16.9597893 9.58662069,17.0914943 9.70156322,17.2064368 C9.81650575,17.3213793 9.94821073,17.4123755 10.0966782,17.4794253 C10.2451456,17.5464751 10.4055862,17.58 10.578,17.58 C10.7504138,17.58 10.9108544,17.5464751 11.0593218,17.4794253 C11.2077893,17.4123755 11.3394943,17.3213793 11.4544368,17.2064368 C11.5693793,17.0914943 11.6603755,16.9597893 11.7274253,16.8113218 C11.7944751,16.6628544 11.828,16.5024138 11.828,16.33 C11.828,16.1575862 11.7944751,15.9971456 11.7274253,15.8486782 C11.6603755,15.7002107 11.5693793,15.5685057 11.4544368,15.4535632 C11.3394943,15.3386207 11.2077893,15.2476245 11.0593218,15.1805747 C10.9108544,15.1135249 10.7504138,15.08 10.578,15.08 Z M10.968,4.624 C9.90133333,4.624 9.032,4.96 8.36,5.632 C7.67733333,6.31466667 7.336,7.09333333 7.336,7.968 C7.336,8.576 7.64533333,8.88 8.264,8.88 C8.80553846,8.88 9.11076923,8.61188166 9.17969231,8.07564497 L9.192,7.936 C9.21333333,7.52 9.37866667,7.16533333 9.688,6.872 C9.99733333,6.57866667 10.408,6.432 10.92,6.432 C11.432,6.432 11.832,6.56 12.12,6.816 C12.408,7.072 12.552,7.44 12.552,7.92 C12.552,8.12266667 12.5386667,8.296 12.512,8.44 C12.4853333,8.584 12.4266667,8.728 12.336,8.872 C12.2453333,9.016 12.12,9.17066667 11.96,9.336 L11.62016,9.6768 L11.62016,9.6768 L11.336,9.952 L11.336,9.952 C10.2266667,11.04 9.672,12.128 9.672,13.216 C9.672,13.408 9.68266667,13.5706667 9.704,13.704 C9.72533333,13.8373333 9.77066667,13.944 9.84,14.024 C9.90933333,14.104 10.008,14.16 10.136,14.192 C10.264,14.224 10.44,14.24 10.664,14.24 C11.1988571,14.24 11.4853878,13.9456871 11.5235918,13.3570612 L11.528,13.216 C11.528,13.0133333 11.5413333,12.832 11.568,12.672 C11.5946667,12.512 11.6533333,12.3493333 11.744,12.184 C11.8346667,12.0186667 11.9706667,11.832 12.152,11.624 C12.2608,11.4992 12.39264,11.35808 12.54752,11.20064 L12.888,10.864 L12.888,10.864 C13.4,10.352 13.7786667,9.87733333 14.024,9.44 C14.2693333,9.00266667 14.392,8.528 14.392,8.016 C14.392,6.91733333 14.088,6.07733333 13.48,5.496 C12.872,4.91466667 12.0346667,4.624 10.968,4.624 Z" id="形状" fill="url(#linearGradient-1)"></path>
                </g>
            </g>
        </g>
    </g>
</svg>