<?xml version="1.0" encoding="UTF-8"?>
<svg width="22px" height="22px" viewBox="0 0 22 22" version="1.1" xmlns="http://www.w3.org/2000/svg" xmlns:xlink="http://www.w3.org/1999/xlink">
    <title>me_setting</title>
    <defs>
        <linearGradient x1="50%" y1="0%" x2="50%" y2="100%" id="linearGradient-1">
            <stop stop-color="#ECDBB9" offset="0%"></stop>
            <stop stop-color="#D4B483" offset="100%"></stop>
        </linearGradient>
    </defs>
    <g id="页面-2" stroke="none" stroke-width="1" fill="none" fill-rule="evenodd">
        <g id="我的" transform="translate(-16.000000, -185.000000)">
            <g id="编组备份-2" transform="translate(0.000000, 168.000000)">
                <g id="me_setting" transform="translate(16.000000, 17.000000)">
                    <rect id="矩形" x="0" y="0" width="22" height="22"></rect>
                    <path d="M12.5,1.3660254 L18.5932667,4.8839746 C19.52147,5.41987298 20.0932667,6.41025404 20.0932667,7.48205081 L20.0932667,14.5179492 C20.0932667,15.589746 19.52147,16.580127 18.5932667,17.1160254 L12.5,20.6339746 C11.5717968,21.169873 10.4282032,21.169873 9.5,20.6339746 L3.40673326,17.1160254 C2.47853003,16.580127 1.90673326,15.589746 1.90673326,14.5179492 L1.90673326,7.48205081 C1.90673326,6.41025404 2.47853003,5.41987298 3.40673326,4.8839746 L9.5,1.3660254 C10.4282032,0.830127019 11.5717968,0.830127019 12.5,1.3660254 Z M11,6 C8.23857625,6 6,8.23857625 6,11 C6,13.7614237 8.23857625,16 11,16 C13.7614237,16 16,13.7614237 16,11 C16,8.23857625 13.7614237,6 11,6 Z M11,8 C12.6568542,8 14,9.34314575 14,11 C14,12.6568542 12.6568542,14 11,14 C9.34314575,14 8,12.6568542 8,11 C8,9.34314575 9.34314575,8 11,8 Z" id="形状" fill="url(#linearGradient-1)"></path>
                </g>
            </g>
        </g>
    </g>
</svg>