<?xml version="1.0" encoding="UTF-8"?>
<svg width="22px" height="22px" viewBox="0 0 22 22" version="1.1" xmlns="http://www.w3.org/2000/svg" xmlns:xlink="http://www.w3.org/1999/xlink">
    <title>tab_wallet</title>
    <g id="页面-2" stroke="none" stroke-width="1" fill="none" fill-rule="evenodd">
        <g id="生态" transform="translate(-51.000000, -736.000000)">
            <g id="Bars/Tab-Bar/Compact/Dark---3-Tabs" transform="translate(0.000000, 728.000000)">
                <g id="Tab-1" transform="translate(0.000000, 8.000000)">
                    <g id="tab_wallet" transform="translate(51.000000, 0.000000)">
                        <rect id="矩形" x="0" y="0" width="22" height="22"></rect>
                        <path d="M19,1 C20.6568542,1 22,2.34314575 22,4 C22,4.55228475 21.5522847,5 21,5 C20.4871642,5 20.0644928,4.61395981 20.0067277,4.11662113 L20,4 C20,3.48716416 19.6139598,3.06449284 19.1166211,3.00672773 L19,3 L3,3 C2.48716416,3 2.06449284,3.38604019 2.00672773,3.88337887 L2,4 L2,18 C2,18.5128358 2.38604019,18.9355072 2.88337887,18.9932723 L3,19 L19,19 C19.5128358,19 19.9355072,18.6139598 19.9932723,18.1166211 L20,18 L20,9 C20,8.48716416 19.6139598,8.06449284 19.1166211,8.00672773 L19,8 L7,8 C5.34314575,8 4,6.65685425 4,5 C4,4.44771525 4.44771525,4 5,4 C5.51283584,4 5.93550716,4.38604019 5.99327227,4.88337887 L6,5 C6,5.51283584 6.38604019,5.93550716 6.88337887,5.99327227 L7,6 L19,6 C20.5976809,6 21.9036609,7.24891996 21.9949073,8.82372721 L22,9 L22,18 C22,19.5976809 20.75108,20.9036609 19.1762728,20.9949073 L19,21 L3,21 C1.40231912,21 0.0963391206,19.75108 0.00509269341,18.1762728 L0,18 L0,4 C0,2.40231912 1.24891996,1.09633912 2.82372721,1.00509269 L3,1 L19,1 Z M16.5,12 C17.3284271,12 18,12.6715729 18,13.5 C18,14.3284271 17.3284271,15 16.5,15 C15.6715729,15 15,14.3284271 15,13.5 C15,12.6715729 15.6715729,12 16.5,12 Z" id="形状" fill="#909195" fill-rule="nonzero"></path>
                    </g>
                </g>
            </g>
        </g>
    </g>
</svg>