<?xml version="1.0" encoding="UTF-8"?>
<svg width="22px" height="22px" viewBox="0 0 22 22" version="1.1" xmlns="http://www.w3.org/2000/svg" xmlns:xlink="http://www.w3.org/1999/xlink">
    <title>tab_me</title>
    <g id="页面-2" stroke="none" stroke-width="1" fill="none" fill-rule="evenodd">
        <g id="钱包" transform="translate(-302.000000, -736.000000)" fill="#909195" fill-rule="nonzero">
            <g id="Bars/Tab-Bar/Compact/Dark---3-Tabs" transform="translate(0.000000, 728.000000)">
                <g id="Tab-3" transform="translate(251.000000, 8.000000)">
                    <path d="M62,15 C64.997753,15 67.9928951,15.5184153 70.9814166,16.5529542 C72.1292287,16.9503233 72.9179693,17.9973055 72.9939739,19.1972296 L73,19.3878899 L73,19.5 C73,20.8254834 71.9684641,21.9100387 70.6643757,21.9946823 L70.5,22 L53.5,22 C52.1745166,22 51.0899613,20.9684641 51.0053177,19.6643757 L51,19.5 L51,19.3879162 C51,18.1093091 51.8103605,16.9712049 53.0186222,16.5529408 C56.0071161,15.5184134 59.0022526,15 62,15 Z M62,17 C59.2282451,17 56.4538792,17.4802013 53.6728708,18.4429034 C53.310392,18.5683827 53.0553497,18.8882147 53.007966,19.261634 L53,19.3878988 L53,19.5 C53,19.7454599 53.1768752,19.9496084 53.4101244,19.9919443 L53.5,20 L70.5,20 C70.7454599,20 70.9496084,19.8231248 70.9919443,19.5898756 L71,19.5 L71,19.3878899 C71,18.9616983 70.7298751,18.5823328 70.3271448,18.4429088 C67.5461311,17.4802031 64.7717601,17 62,17 Z M62,0 C65.8659932,0 69,3.13400675 69,7 C69,10.8659932 65.8659932,14 62,14 C58.1340068,14 55,10.8659932 55,7 C55,3.13400675 58.1340068,0 62,0 Z M62,2 C59.2385763,2 57,4.23857625 57,7 C57,9.76142375 59.2385763,12 62,12 C64.7614237,12 67,9.76142375 67,7 C67,4.23857625 64.7614237,2 62,2 Z" id="tab_me"></path>
                </g>
            </g>
        </g>
    </g>
</svg>