<?xml version="1.0" encoding="UTF-8"?>
<svg width="22px" height="22px" viewBox="0 0 22 22" version="1.1" xmlns="http://www.w3.org/2000/svg" xmlns:xlink="http://www.w3.org/1999/xlink">
    <title>tab_ecology_active</title>
    <g id="页面-2" stroke="none" stroke-width="1" fill="none" fill-rule="evenodd">
        <g id="生态" transform="translate(-177.000000, -736.000000)" fill="#C19A5F" fill-rule="nonzero">
            <g id="Bars/Tab-Bar/Compact/Dark---3-Tabs" transform="translate(0.000000, 728.000000)">
                <g id="Tab-2" transform="translate(126.000000, 8.000000)">
                    <path d="M62,0 C68.0751322,0 73,4.92486775 73,11 C73,17.0751322 68.0751322,22 62,22 C55.9248678,22 51,17.0751322 51,11 C51,4.92486775 55.9248678,0 62,0 Z M62,2 C57.0294373,2 53,6.02943725 53,11 C53,15.9705627 57.0294373,20 62,20 C66.9705627,20 71,15.9705627 71,11 C71,6.02943725 66.9705627,2 62,2 Z M66.5751066,5.97767976 C67.033801,6.20702692 67.2392073,6.74133612 67.0684573,7.2120027 L67.0223202,7.31932054 L64.7176051,11.9287508 C64.3692558,12.6254494 63.825992,13.2035481 63.1564968,13.5943639 L62.9287508,13.7176051 L58.3193205,16.0223202 C58.0377931,16.163084 57.7064208,16.163084 57.4248934,16.0223202 C56.966199,15.7929731 56.7607927,15.2586639 56.9315427,14.7879973 L56.9776798,14.6806795 L59.2823949,10.0712492 C59.6307442,9.3745506 60.174008,8.79645186 60.8435032,8.40563614 L61.0712492,8.28239486 L65.6806795,5.97767976 C65.9622069,5.83691601 66.2935792,5.83691601 66.5751066,5.97767976 Z M63.8915106,9.10848936 L61.9656764,10.0712492 C61.6339152,10.2371299 61.3559407,10.4914071 61.1614186,10.8044154 L61.0712492,10.9656764 L60.1091965,12.8908035 L62.0343236,11.9287508 C62.3660848,11.7628701 62.6440593,11.5085929 62.8385814,11.1955846 L62.9287508,11.0343236 L63.8915106,9.10848936 Z" id="tab_ecology_active"></path>
                </g>
            </g>
        </g>
    </g>
</svg>